# Blender 5.0.0
# www.blender.org
mtllib Untitled.mtl
o defaultMaterial
v 88.676201 32.216434 102.557610
v 177.192993 34.549736 100.440514
v 152.968094 94.620941 74.047279
v 71.851898 70.212036 69.718086
v 145.358307 118.462822 -0.000036
v 64.001205 88.829315 -0.000027
v 5.193500 -83.419136 -66.452583
v 99.859703 -92.705040 -81.144684
v 96.309204 -113.239021 0.000034
v 0.000000 -100.660316 0.000030
v 239.232300 38.843506 -0.000012
v 239.788788 -16.189503 0.000005
v 224.947998 -27.404034 -92.213608
v 224.643997 55.730194 -53.087120
v -198.230103 37.476131 91.194504
v -94.956604 31.535938 115.355515
v -101.475998 75.560837 78.418091
v -194.925705 72.776337 66.365791
v -165.287598 -285.985657 -69.639626
v -166.101303 -288.414551 -37.539116
v -200.087601 -214.754822 -12.195537
v -198.690704 -211.549133 -59.216343
v -254.792313 24.798994 -32.901413
v -226.033096 3.594575 -84.693214
v -252.315811 -6.420901 0.000002
v -265.335907 20.116802 -0.000006
v -6.204700 86.224014 -0.000026
v -6.204700 67.577934 66.452583
v 192.735397 -87.418495 84.142334
v 197.567795 -99.754417 0.000030
v 239.788788 -16.189503 0.000005
v 224.947998 -27.403976 92.213623
v -105.915199 97.516914 -0.000030
v -193.362900 88.012215 -0.000027
v -564.706421 39.990005 -0.000012
v -564.706421 58.368908 -0.000018
v -536.188049 57.205597 -33.142525
v -536.188049 41.167599 -25.461115
v 206.033295 137.956207 -50.064548
v 152.968094 94.620895 -74.047340
v 145.358307 118.462822 -0.000036
v 181.836899 158.732727 -0.000048
v 233.048889 260.375275 58.628326
v 233.341400 260.375275 68.496735
v 239.914490 260.375275 67.853531
v 240.347504 260.375275 58.532928
v -198.230103 37.476078 -91.194519
v -194.925705 72.776291 -66.365929
v -101.475998 75.560791 -78.418137
v -94.956604 31.535870 -115.355530
v -165.287598 -285.985596 69.639793
v -166.101303 -288.414551 37.539291
v -129.856796 -294.818359 37.938992
v -129.988403 -290.248108 70.739899
v -199.550598 -109.732216 0.000033
v -186.826599 -101.681236 -72.287880
v -70.012199 -12.818235 -113.321609
v -0.505600 29.947475 -98.499825
v 5.368500 -7.522531 -97.330612
v 159.996292 -288.430725 -25.776815
v 159.181000 -286.093292 -57.870525
v 155.734604 -216.368057 -68.745842
v 157.382095 -220.031036 -13.377736
v -0.505600 29.947536 98.499809
v 67.868698 -5.308631 -100.749413
v 192.735397 -87.418541 -84.142288
v -253.797882 42.695217 41.152298
v -252.803619 60.591415 31.194986
v -536.188049 73.243515 24.755381
v -536.188049 57.205620 33.142487
v 177.192993 34.549675 -100.440529
v 205.490082 96.843193 -66.227142
v 95.017700 -231.516327 -13.881932
v 197.567795 -99.754417 0.000030
v 123.877892 -290.654633 58.973000
v 123.744598 -294.900848 26.174692
v 159.996292 -288.430725 25.776991
v 159.181000 -286.093231 57.870701
v -89.081200 -118.852493 78.444550
v 5.193500 -83.419090 66.452629
v 5.368500 -7.522472 97.330513
v -70.012199 -12.818167 113.321625
v 95.483795 -223.786255 -70.810936
v -106.120003 -130.052826 0.000039
v 0.000000 -100.660316 0.000030
v 88.676201 32.216373 -102.557625
v 99.859703 -92.704994 81.144745
v 67.868698 -5.308570 100.749413
v -6.204700 67.577888 -66.452629
v 233.341400 260.375214 -68.496887
v 233.048889 260.375214 -58.628487
v -199.550598 -109.732216 0.000033
v -186.826599 -101.681190 72.287941
v -226.033096 3.594626 84.693214
v -252.315811 -6.420901 0.000002
v 71.851898 70.211990 -69.718132
v 64.001205 88.829315 -0.000027
v 239.914490 260.375214 -67.853683
v 251.364716 177.748611 -75.145966
v 96.309204 -113.239021 0.000034
v -141.943710 -220.687653 -60.967140
v -89.081200 -118.852539 -78.444572
v -6.204700 86.224014 -0.000026
v -129.856796 -294.818359 -37.938816
v -129.988403 -290.248169 -70.739716
v -147.137497 -225.351440 -12.626232
v -253.797882 42.695194 -41.152321
v -536.188049 73.243500 -24.755426
v -252.803619 60.591400 -31.195024
v -141.943710 -220.687622 60.967278
v -198.690704 -211.549103 59.216473
v 157.382095 -220.031036 13.377870
v 155.734604 -216.368027 68.745979
v -200.087601 -214.754822 12.195666
v -147.137497 -225.351440 12.626369
v 95.483795 -223.786224 70.811073
v 95.017700 -231.516327 13.882073
v -564.706421 76.747910 -0.000023
v -193.362900 88.012215 -0.000027
v -105.915199 97.516914 -0.000030
v 240.347504 260.375214 -58.533089
v 123.877892 -290.654694 -58.972824
v 123.744598 -294.900848 -26.174513
v -106.120003 -130.052826 0.000039
v -254.792313 24.799013 32.901398
v -261.937897 67.559006 -0.000020
v -265.335907 20.116802 -0.000006
v -564.706421 58.368908 -0.000018
v -564.706421 76.747910 -0.000023
v -536.188049 41.167614 25.461088
v -564.706421 39.990005 -0.000012
v 205.490082 96.843239 66.227081
v 206.033295 137.956238 50.064465
v 239.232300 38.843506 -0.000012
v 224.643997 55.730324 53.087090
v 284.666199 138.638046 77.554466
v 348.920288 112.121017 -0.000034
v 293.189606 188.786835 -0.000057
v 251.364716 177.748642 75.145859
v 284.666199 138.637985 -77.554558
v 251.364716 177.748611 -75.145966
v 337.621185 71.014908 -0.000022
v 283.609802 87.688026 61.697483
v 293.189606 188.786835 -0.000057
v 284.666199 138.638046 77.554466
v 251.364716 177.748642 75.145859
v 240.347504 260.375275 58.532928
v 239.914490 260.375275 67.853531
v 284.666199 138.637985 -77.554558
v 283.609802 87.687996 -61.697536
v 240.347504 260.375214 -58.533089
v 239.914490 260.375214 -67.853683
v 337.621185 71.014908 -0.000022
v 283.609802 87.687996 -61.697536
v 337.621185 71.014908 -0.000022
v 283.609802 87.688026 61.697483
v -261.937897 67.559006 -0.000020
vn -0.1314 0.7940 0.5936
vn -0.0346 0.2513 0.9673
vn 0.2249 0.2126 0.9509
vn -0.1790 0.6652 0.7248
vn -0.4814 0.8765 -0.0000
vn -0.1785 0.9839 0.0001
vn 0.1089 -0.9941 -0.0000
vn 0.0841 -0.7421 -0.6650
vn -0.2742 -0.3886 -0.8797
vn -0.7467 -0.6652 -0.0000
vn 0.6473 -0.1959 -0.7366
vn 0.8726 -0.4885 -0.0000
vn 0.9829 -0.1843 -0.0000
vn 0.6998 -0.1817 -0.6908
vn -0.2836 0.7883 0.5460
vn -0.3700 0.2848 0.8843
vn -0.0326 0.2951 0.9549
vn 0.0060 0.8320 0.5547
vn -0.7545 -0.1397 -0.6413
vn -0.4757 -0.5549 -0.6825
vn -0.5012 -0.7486 0.4340
vn -0.7452 -0.2537 0.6168
vn -0.5066 -0.8622 -0.0001
vn -0.6287 -0.4736 -0.6168
vn -0.6607 -0.1537 -0.7348
vn -0.9067 -0.4218 -0.0001
vn 0.0474 0.8471 0.5293
vn 0.0375 0.9993 -0.0000
vn 0.6998 -0.1817 0.6908
vn 0.5834 -0.3528 0.7316
vn 0.9109 -0.4126 -0.0001
vn 0.0114 0.9999 0.0001
vn -0.1952 0.9808 -0.0000
vn -0.3239 -0.6964 -0.6404
vn -0.7632 -0.6462 -0.0000
vn -0.9999 0.0156 0.0001
vn -0.3682 0.0271 -0.9293
vn -0.7582 0.6521 -0.0000
vn -0.5316 0.3405 -0.7755
vn -0.1790 0.6652 -0.7248
vn 0.4435 0.8733 -0.2015
vn -0.5651 0.8001 -0.2012
vn -0.5819 0.4975 0.6434
vn 0.2288 0.6432 0.7307
vn -0.0326 0.2952 -0.9549
vn -0.3700 0.2848 -0.8843
vn -0.2836 0.7883 -0.5460
vn 0.0060 0.8320 -0.5547
vn 0.6076 -0.5034 0.6143
vn -0.4757 -0.5549 0.6825
vn -0.5012 -0.7486 -0.4340
vn 0.5963 -0.6677 -0.4456
vn -0.6055 -0.2370 -0.7598
vn -0.9731 -0.2302 0.0001
vn 0.0595 -0.1726 -0.9832
vn 0.0587 -0.1632 -0.9849
vn 0.0664 0.3520 -0.9336
vn 0.6671 -0.1982 0.7181
vn 0.6479 -0.5817 0.4918
vn 0.6426 -0.5310 -0.5524
vn 0.6390 -0.1817 -0.7474
vn 0.0664 0.3520 0.9336
vn 0.5834 -0.3528 -0.7316
vn -0.0447 -0.1546 -0.9870
vn -0.3682 0.0271 0.9293
vn -0.4070 0.2371 0.8821
vn -0.2470 0.8127 0.5278
vn -0.2649 0.7190 0.6426
vn 0.1103 0.1657 -0.9800
vn 0.2249 0.2126 -0.9509
vn -0.7265 -0.2441 0.6423
vn 0.9109 -0.4126 0.0001
vn 0.6425 -0.5309 0.5525
vn -0.3798 -0.7161 0.5856
vn -0.3807 -0.7893 -0.4818
vn 0.6479 -0.5817 -0.4918
vn 0.0587 -0.1632 0.9849
vn 0.2952 -0.5860 0.7547
vn 0.0841 -0.7421 0.6650
vn 0.0595 -0.1726 0.9832
vn -0.7037 -0.1975 -0.6825
vn 0.6632 -0.7484 -0.0000
vn -0.0346 0.2513 -0.9673
vn -0.0447 -0.1546 0.9870
vn -0.2742 -0.3886 0.8797
vn 0.0474 0.8471 -0.5293
vn -0.5651 0.8001 0.2012
vn -0.5819 0.4975 -0.6434
vn -0.9067 -0.4218 0.0001
vn -0.9731 -0.2302 -0.0001
vn -0.6055 -0.2370 0.7598
vn -0.6607 -0.1537 0.7348
vn -0.1314 0.7940 -0.5936
vn -0.1785 0.9839 -0.0001
vn 0.2288 0.6432 -0.7307
vn 0.1761 0.2406 -0.9545
vn -0.7466 -0.6652 -0.0000
vn 0.2952 -0.5860 -0.7547
vn 0.6686 -0.0987 -0.7371
vn 0.5227 -0.2763 0.8065
vn 0.5963 -0.6677 0.4456
vn 0.6076 -0.5034 -0.6143
vn -0.2470 0.8127 -0.5278
vn -0.4071 0.2371 -0.8821
vn -0.2648 0.7190 -0.6426
vn -0.7545 -0.1397 0.6413
vn 0.6686 -0.0987 0.7371
vn 0.6390 -0.1817 0.7474
vn 0.6671 -0.1982 -0.7181
vn -0.7452 -0.2537 -0.6168
vn 0.5227 -0.2763 -0.8065
vn -0.7037 -0.1975 0.6825
vn -0.7265 -0.2441 -0.6423
vn -0.7230 0.6908 -0.0000
vn 0.0114 0.9999 -0.0001
vn -0.1951 0.9808 -0.0000
vn 0.4435 0.8734 0.2014
vn -0.3806 -0.7893 0.4818
vn -0.3798 -0.7161 -0.5856
vn -0.6287 -0.4736 0.6168
vn -0.1123 0.9937 0.0001
vn -0.5066 -0.8622 0.0001
vn -0.7230 0.6909 -0.0000
vn -0.9999 0.0156 -0.0001
vn -0.3239 -0.6964 0.6404
vn 0.1103 0.1657 0.9800
vn -0.5316 0.3405 0.7755
vn 0.6473 -0.1959 0.7366
vn 0.1761 0.2407 0.9545
vn 0.4260 0.1723 0.8882
vn 0.9950 0.0998 -0.0000
vn 0.7029 0.7113 -0.0000
vn 0.4260 0.1723 -0.8882
vn 0.3851 -0.4984 0.7768
vn 0.7748 -0.6322 -0.0000
vn 0.7028 0.7114 0.0001
vn 0.4260 0.1724 0.8882
vn 0.4434 0.8734 -0.2015
vn 0.2288 0.6433 0.7307
vn 0.3851 -0.4984 -0.7767
vn 0.4434 0.8734 0.2014
vn 0.3851 -0.4983 -0.7767
vn 0.3851 -0.4984 0.7767
vn -0.1123 0.9937 -0.0001
vt 0.237884 0.350480
vt 0.216410 0.326255
vt 0.148226 0.354580
vt 0.169327 0.391235
vt 0.192691 0.438710
vt 0.266044 0.384483
vt 0.191348 0.827031
vt 0.221163 0.779741
vt 0.191193 0.744535
vt 0.113693 0.849710
vt 0.098420 0.623931
vt 0.064760 0.643115
vt 0.051860 0.674340
vt 0.106254 0.668070
vt 0.403440 0.212349
vt 0.387230 0.194921
vt 0.323140 0.239170
vt 0.349077 0.259675
vt 0.298734 0.887566
vt 0.270683 0.891752
vt 0.264983 0.900948
vt 0.276380 0.918212
vt 0.419018 0.875662
vt 0.424281 0.851947
vt 0.393461 0.833626
vt 0.403114 0.888382
vt 0.293482 0.309950
vt 0.317797 0.343013
vt 0.106254 0.331930
vt 0.098178 0.298873
vt 0.000089 0.233507
vt 0.051860 0.325660
vt 0.385297 0.292333
vt 0.435068 0.234667
vt 0.540533 0.977993
vt 0.541793 0.999911
vt 0.562591 0.990389
vt 0.548113 0.971602
vt 0.151729 0.500000
vt 0.126451 0.562517
vt 0.169327 0.608765
vt 0.192691 0.561290
vt 0.057761 0.462852
vt 0.061440 0.460577
vt 0.058906 0.456984
vt 0.054924 0.455312
vt 0.323140 0.760830
vt 0.387230 0.805079
vt 0.403440 0.787651
vt 0.349077 0.740325
vt 0.259812 0.110042
vt 0.270683 0.108248
vt 0.264983 0.099052
vt 0.253021 0.105059
vt 0.342363 0.867734
vt 0.300623 0.954772
vt 0.255999 0.734023
vt 0.292770 0.769245
vt 0.274114 0.714020
vt 0.064607 0.774839
vt 0.093102 0.772992
vt 0.098113 0.763879
vt 0.100576 0.743819
vt 0.274114 0.285980
vt 0.098178 0.701127
vt 0.227268 0.705393
vt 0.548113 0.028398
vt 0.432737 0.159502
vt 0.441791 0.169245
vt 0.556779 0.033645
vt 0.122716 0.599278
vt 0.148226 0.645420
vt 0.106143 0.799887
vt 0.000089 0.766493
vt 0.098113 0.236121
vt 0.109159 0.228878
vt 0.100061 0.220540
vt 0.093102 0.227008
vt 0.292770 0.230755
vt 0.256590 0.177050
vt 0.221163 0.220259
vt 0.255999 0.265977
vt 0.133863 0.768630
vt 0.164485 0.086495
vt 0.191348 0.172969
vt 0.216410 0.673745
vt 0.227268 0.294607
vt 0.191193 0.255465
vt 0.293482 0.690050
vt 0.061440 0.539423
vt 0.058906 0.543016
vt 0.403114 0.111618
vt 0.300623 0.045228
vt 0.342363 0.132266
vt 0.393461 0.166374
vt 0.237884 0.649520
vt 0.266044 0.615517
vt 0.054924 0.544688
vt 0.079984 0.566746
vt 0.113693 0.150290
vt 0.256590 0.822950
vt 0.258239 0.863314
vt 0.317797 0.656987
vt 0.225417 0.901125
vt 0.253021 0.894941
vt 0.259812 0.889958
vt 0.441791 0.830755
vt 0.432737 0.840498
vt 0.556779 0.966355
vt 0.298734 0.112434
vt 0.258239 0.136686
vt 0.100576 0.256181
vt 0.064607 0.225161
vt 0.276380 0.081788
vt 0.225417 0.098875
vt 0.133863 0.231370
vt 0.106143 0.200113
vt 0.579477 0.972581
vt 0.385297 0.707667
vt 0.435068 0.765333
vt 0.057761 0.537148
vt 0.100061 0.779460
vt 0.109159 0.771122
vt 0.164485 0.913505
vt 0.424281 0.148053
vt 0.461212 0.176060
vt 0.419018 0.124338
vt 0.579477 0.027419
vt 0.562591 0.009611
vt 0.541793 0.000089
vt 0.540533 0.022007
vt 0.122716 0.400722
vt 0.126450 0.437483
vt 0.064760 0.356885
vt 0.098420 0.376069
vt 0.463155 0.469037
vt 0.476048 0.603353
vt 0.710265 0.719206
vt 0.710265 0.464330
vt 0.944481 0.603353
vt 0.957375 0.469037
vt 0.050898 0.392541
vt 0.017028 0.353245
vt 0.058165 0.500000
vt 0.067982 0.414355
vt 0.079984 0.433254
vt 0.500037 0.242110
vt 0.474351 0.244542
vt 0.067982 0.585645
vt 0.050898 0.607459
vt 0.946178 0.244542
vt 0.920492 0.242110
vt 0.017028 0.646755
vt 0.710265 0.829773
vt 0.942762 0.758649
vt 0.477767 0.758649
vt 0.461212 0.823940
s 1
usemtl Material.001
f 4/1/1 1/2/2 2/3/3
f 2/3/3 3/4/4 4/1/1
f 4/1/1 3/4/4 5/5/5
f 5/5/5 6/6/6 4/1/1
f 10/7/7 7/8/8 8/9/9
f 8/9/9 9/10/10 10/7/7
f 14/11/11 11/12/12 12/13/13
f 12/13/13 13/14/14 14/11/11
f 18/15/15 15/16/16 16/17/17
f 16/17/17 17/18/18 18/15/15
f 22/19/19 19/20/20 20/21/21
f 20/21/21 21/22/22 22/19/19
f 26/23/23 23/24/24 24/25/25
f 24/25/25 25/26/26 26/23/23
f 28/27/27 4/1/1 6/6/6
f 6/6/6 27/28/28 28/27/27
f 32/29/29 29/30/30 30/31/31
f 30/31/31 31/32/13 32/29/29
f 18/15/15 17/18/18 33/33/32
f 33/33/32 34/34/33 18/15/15
f 38/35/34 35/36/35 36/37/36
f 36/37/36 37/38/37 38/35/34
f 42/39/38 39/40/39 40/41/40
f 40/41/40 41/42/5 42/39/38
f 46/43/41 43/44/42 44/45/43
f 44/45/43 45/46/44 46/43/41
f 50/47/45 47/48/46 48/49/47
f 48/49/47 49/50/48 50/47/45
f 54/51/49 51/52/50 52/53/51
f 52/53/51 53/54/52 54/51/49
f 56/55/53 22/19/19 21/22/22
f 21/22/22 55/56/54 56/55/53
f 59/57/55 57/58/56 50/47/45
f 50/47/45 58/59/57 59/57/55
f 63/60/58 60/61/59 61/62/60
f 61/62/60 62/63/61 63/60/58
f 17/18/18 16/17/17 64/64/62
f 64/64/62 28/27/27 17/18/18
f 66/65/63 8/9/9 65/66/64
f 65/66/64 13/14/14 66/65/63
f 28/27/27 64/64/62 1/2/2
f 1/2/2 4/1/1 28/27/27
f 70/67/65 67/68/66 68/69/67
f 68/69/67 69/70/68 70/67/65
f 72/71/69 14/11/11 13/14/14
f 13/14/14 71/72/70 72/71/69
f 9/10/10 73/73/71 63/60/58
f 63/60/58 74/74/72 9/10/10
f 78/75/73 75/76/74 76/77/75
f 76/77/75 77/78/76 78/75/73
f 82/79/77 79/80/78 80/81/79
f 80/81/79 81/82/80 82/79/77
f 66/65/63 62/63/61 83/83/81
f 83/83/81 8/9/9 66/65/63
f 80/81/79 79/80/78 84/84/82
f 84/84/82 85/85/7 80/81/79
f 65/66/64 59/57/55 58/59/57
f 58/59/57 86/86/83 65/66/64
f 88/87/84 87/88/85 29/30/30
f 29/30/30 32/29/29 88/87/84
f 81/82/80 80/81/79 87/88/85
f 87/88/85 88/87/84 81/82/80
f 58/59/57 50/47/45 49/50/48
f 49/50/48 89/89/86 58/59/57
f 17/18/18 28/27/27 27/28/28
f 27/28/28 33/33/32 17/18/18
f 91/90/87 90/91/88 39/40/39
f 39/40/39 42/39/38 91/90/87
f 95/92/89 92/93/90 93/94/91
f 93/94/91 94/95/92 95/92/89
f 41/42/5 40/41/40 96/96/93
f 96/96/93 97/97/94 41/42/5
f 90/91/88 98/98/95 99/99/96
f 99/99/96 39/40/39 90/91/88
f 87/88/85 80/81/79 85/85/7
f 85/85/7 100/100/97 87/88/85
f 102/101/98 101/102/99 22/19/19
f 22/19/19 56/55/53 102/101/98
f 94/95/92 93/94/91 79/80/78
f 79/80/78 82/79/77 94/95/92
f 97/97/94 96/96/93 89/89/86
f 89/89/86 103/103/28 97/97/94
f 106/104/100 104/105/101 105/106/102
f 105/106/102 101/102/99 106/104/100
f 74/74/72 66/65/63 13/14/14
f 13/14/14 12/13/13 74/74/72
f 71/72/70 86/86/83 96/96/93
f 96/96/93 40/41/40 71/72/70
f 8/9/9 83/83/81 73/73/71
f 73/73/71 9/10/10 8/9/9
f 102/101/98 56/55/53 24/25/25
f 24/25/25 57/58/56 102/101/98
f 109/107/103 107/108/104 37/38/37
f 37/38/37 108/109/105 109/107/103
f 8/9/9 7/8/8 59/57/55
f 59/57/55 65/66/64 8/9/9
f 111/110/106 110/111/107 79/80/78
f 79/80/78 93/94/91 111/110/106
f 113/112/108 112/113/109 30/31/31
f 30/31/31 29/30/30 113/112/108
f 114/114/110 111/110/106 93/94/91
f 93/94/91 92/93/90 114/114/110
f 115/115/111 114/114/110 92/93/90
f 92/93/90 84/84/82 115/115/111
f 110/111/107 115/115/111 84/84/82
f 84/84/82 79/80/78 110/111/107
f 116/116/112 113/112/108 29/30/30
f 29/30/30 87/88/85 116/116/112
f 112/113/109 117/117/113 100/100/97
f 100/100/97 30/31/31 112/113/109
f 117/117/113 116/116/112 87/88/85
f 87/88/85 100/100/97 117/117/113
f 37/38/37 36/37/36 118/118/114
f 118/118/114 108/109/105 37/38/37
f 20/21/21 19/20/20 105/106/102
f 105/106/102 104/105/101 20/21/21
f 120/119/115 49/50/48 48/49/47
f 48/49/47 119/120/116 120/119/115
f 101/102/99 105/106/102 19/20/20
f 19/20/20 22/19/19 101/102/99
f 54/51/49 53/54/52 115/115/111
f 115/115/111 110/111/107 54/51/49
f 53/54/52 52/53/51 114/114/110
f 114/114/110 115/115/111 53/54/52
f 52/53/51 51/52/50 111/110/106
f 111/110/106 114/114/110 52/53/51
f 51/52/50 54/51/49 110/111/107
f 110/111/107 111/110/106 51/52/50
f 7/8/8 102/101/98 57/58/56
f 57/58/56 59/57/55 7/8/8
f 56/55/53 55/56/54 25/26/26
f 25/26/26 24/25/25 56/55/53
f 86/86/83 58/59/57 89/89/86
f 89/89/86 96/96/93 86/86/83
f 90/91/88 91/90/87 121/121/117
f 121/121/117 98/98/95 90/91/88
f 76/77/75 75/76/74 116/116/112
f 116/116/112 117/117/113 76/77/75
f 77/78/76 76/77/75 117/117/113
f 117/117/113 112/113/109 77/78/76
f 75/76/74 78/75/73 113/112/108
f 113/112/108 116/116/112 75/76/74
f 78/75/73 77/78/76 112/113/109
f 112/113/109 113/112/108 78/75/73
f 74/74/72 63/60/58 62/63/61
f 62/63/61 66/65/63 74/74/72
f 123/122/118 122/123/119 61/62/60
f 61/62/60 60/61/59 123/122/118
f 124/124/82 102/101/98 7/8/8
f 7/8/8 10/7/7 124/124/82
f 15/16/16 67/68/66 125/125/120
f 125/125/120 94/95/92 15/16/16
f 34/34/33 126/126/121 68/69/67
f 68/69/67 18/15/15 34/34/33
f 94/95/92 125/125/120 127/127/122
f 127/127/122 95/92/89 94/95/92
f 23/24/24 26/23/23 35/36/35
f 35/36/35 38/35/34 23/24/24
f 129/128/123 128/129/124 70/67/65
f 70/67/65 69/70/68 129/128/123
f 69/70/68 68/69/67 126/126/121
f 126/126/121 129/128/123 69/70/68
f 103/103/28 89/89/86 49/50/48
f 49/50/48 120/119/115 103/103/28
f 55/56/54 21/22/22 106/104/100
f 106/104/100 124/124/82 55/56/54
f 131/130/35 127/127/122 125/125/120
f 125/125/120 130/131/125 131/130/35
f 124/124/82 106/104/100 101/102/99
f 101/102/99 102/101/98 124/124/82
f 2/3/3 132/132/126 133/133/127
f 133/133/127 3/4/4 2/3/3
f 83/83/81 122/123/119 123/122/118
f 123/122/118 73/73/71 83/83/81
f 21/22/22 20/21/21 104/105/101
f 104/105/101 106/104/100 21/22/22
f 3/4/4 133/133/127 42/39/38
f 42/39/38 5/5/5 3/4/4
f 31/32/13 134/134/12 135/135/128
f 135/135/128 32/29/29 31/32/13
f 139/136/129 136/137/130 137/138/131
f 137/138/131 138/139/132 139/136/129
f 137/138/131 140/140/133 141/141/96
f 141/141/96 138/139/132 137/138/131
f 23/24/24 107/108/104 47/48/46
f 47/48/46 24/25/25 23/24/24
f 143/142/134 135/135/128 134/134/12
f 134/134/12 142/143/135 143/142/134
f 121/121/117 91/90/87 42/39/38
f 42/39/38 144/144/136 121/121/117
f 145/145/137 132/132/126 135/135/128
f 135/135/128 143/142/134 145/145/137
f 146/146/129 45/46/44 44/45/43
f 44/45/43 133/133/127 146/146/129
f 133/133/127 44/45/43 43/44/42
f 43/44/42 42/39/38 133/133/127
f 138/139/132 147/147/138 148/148/139
f 148/148/139 139/136/129 138/139/132
f 42/39/38 43/44/42 46/43/41
f 46/43/41 144/144/136 42/39/38
f 72/71/69 39/40/39 99/99/96
f 99/99/96 149/149/133 72/71/69
f 14/11/11 72/71/69 149/149/133
f 149/149/133 150/150/140 14/11/11
f 152/151/95 151/152/141 138/139/132
f 138/139/132 141/141/96 152/151/95
f 39/40/39 72/71/69 71/72/70
f 71/72/70 40/41/40 39/40/39
f 146/146/129 133/133/127 132/132/126
f 132/132/126 145/145/137 146/146/129
f 11/12/12 14/11/11 150/150/140
f 150/150/140 153/153/135 11/12/12
f 155/154/135 154/155/142 140/140/133
f 140/140/133 137/138/131 155/154/135
f 136/137/130 156/156/143 155/154/135
f 155/154/135 137/138/131 136/137/130
f 73/73/71 123/122/118 60/61/59
f 60/61/59 63/60/58 73/73/71
f 32/29/29 135/135/128 132/132/126
f 132/132/126 2/3/3 32/29/29
f 128/129/124 131/130/35 130/131/125
f 130/131/125 70/67/65 128/129/124
f 157/157/144 109/107/103 108/109/105
f 108/109/105 118/118/114 157/157/144
f 18/15/15 68/69/67 67/68/66
f 67/68/66 15/16/16 18/15/15
f 62/63/61 61/62/60 122/123/119
f 122/123/119 83/83/81 62/63/61
f 109/107/103 157/157/144 119/120/116
f 119/120/116 48/49/47 109/107/103
f 57/58/56 24/25/25 47/48/46
f 47/48/46 50/47/45 57/58/56
f 107/108/104 109/107/103 48/49/47
f 48/49/47 47/48/46 107/108/104
f 130/131/125 125/125/120 67/68/66
f 67/68/66 70/67/65 130/131/125
f 64/64/62 81/82/80 88/87/84
f 88/87/84 1/2/2 64/64/62
f 16/17/17 82/79/77 81/82/80
f 81/82/80 64/64/62 16/17/17
f 13/14/14 65/66/64 86/86/83
f 86/86/83 71/72/70 13/14/14
f 107/108/104 23/24/24 38/35/34
f 38/35/34 37/38/37 107/108/104
f 15/16/16 94/95/92 82/79/77
f 82/79/77 16/17/17 15/16/16
f 1/2/2 88/87/84 32/29/29
f 32/29/29 2/3/3 1/2/2
